<svg id="svg86" xmlns="http://www.w3.org/2000/svg" viewBox="0 0 477.6 470.88"><defs><style>.cls-1,.cls-5{fill:#fadc6e;}.cls-1{stroke:#fadc6e;stroke-width:2.13px;}.cls-1,.cls-2,.cls-3,.cls-4,.cls-5{fill-rule:evenodd;}.cls-2,.cls-3,.cls-4{fill:#d0a955;}.cls-2,.cls-3{stroke:#d0a955;}.cls-2{stroke-width:0.71px;}.cls-3{stroke-width:0.57px;}.cls-6{fill:none;}</style></defs><title>garderob</title><path id="path4" class="cls-1" d="M286.94,19.16c.13-.19,3.32-2.8,5-4,13.08-9,25.78-14.27,40.78-4.21,12.39,8.32,13.06,24.18,17.64,36.36.08-4.45-1.53-19.05-3.09-23.49C342,8.78,330.63-2.57,310.48,2.32,300,4.86,289.91,11.4,286.94,19.16ZM214,38c-1.56-2.41-3.29-3.67-4.6-5.22-3.16-3.73-11-13-9.77-18.29,24.29-5.54,128.29,97.59,209.45,100,24.46.67,26.4-8.93,19.07-18.6-7.07-9.33-22.85-18.69-31.5-20.72,4.66,3.68,42.24,23.71,27,32.65-17.24,9.65-62.44-7-77.37-14-25.39-12-62.75-36-86-52.49L243.64,30c-7.72-5.45-25.81-16.1-36.69-18.74-15.13-3.67-11.31,8.24-3.95,16.39,2.73,3,7.55,8.75,11,10.33Z" transform="translate(0)"/><g id="Layer1000"><path id="path6" class="cls-2" d="M303.41,139.6c3.3-.24,6.44-2.9,8.4-4.4l7-6.13c10.83-11.7,25.72-6.06,32,6.79a27.42,27.42,0,0,1,2.64,10.62c1.19,19.84-5.95,43.18-3,61.59,0,.1.16.5.17.52.23.57.13.35.42.7.32-3.27.22-7.27.24-10.62a115.35,115.35,0,0,1,3.93-29.31c3.2-11,7.34-24.93,1-35.56s-22.5-20.8-36-10.91c-4.3,3.15-7.31,7.59-10.66,11.66-2.23,2.7-4.76,3.64-6.1,5Z" transform="translate(0)"/><path id="path8" class="cls-3" d="M328.35,112.68a4.33,4.33,0,0,0,.71-1.56c-9.83,4.39-22.27,8.73-39-7.44a39,39,0,0,1-4.42-5.08l-3.84-5.54c-.36,13,33.59,37.79,46.52,19.62Z" transform="translate(0)"/></g><path id="path11" class="cls-4" d="M306.27,99.19c2.07.71,10,.32,11.7-.63,3.61-2,7.86,1.66,10.26,1.69.27-3.7-2.23-6.39-5.94-5.4-3.2-5.15-14.49,1.4-16,4.34Z" transform="translate(0)"/><path id="path13" class="cls-4" d="M309.23,101.38c1.65,5.19,14.15,7.9,16,1.12-1.79-2.64-2.84-.46-3.7,0-.62-2.71-9-1.14-12.35-1.13Z" transform="translate(0)"/><path id="path15" class="cls-5" d="M18.89,448.85v6H48a19.87,19.87,0,0,1-7.37,6.52,21.66,21.66,0,0,1-11.34,3.11,21.84,21.84,0,0,1-16.15-6.76,22.77,22.77,0,0,1,0-32.38,22.08,22.08,0,0,1,16.15-6.68,22.47,22.47,0,0,1,13.82,4.58,24,24,0,0,1,8.39,12.27h6.37a30.16,30.16,0,0,0-10.56-16.85,28,28,0,0,0-18-6.29,28.18,28.18,0,0,0-20.58,8.54,29.26,29.26,0,0,0,0,41.32,28.07,28.07,0,0,0,20.58,8.46,28.51,28.51,0,0,0,17.47-5.82,31.3,31.3,0,0,0,10.87-16ZM103.41,419,100,412.43l-3.73,6.91h0L69.71,469.89h7.14l23.07-43.95,23.22,43.95h7Zm196.48,29.51H267v5.9h32.93Zm.16-35H256.56v56.38h43.49v-5.9H262.62v-44.5h37.43Zm51.74,20.81q0-12.69-10.71-17.94a23.81,23.81,0,0,0-10.72-2.64H312.11v56.15H318V419.5h12.35a17.35,17.35,0,0,1,8,1.94q7.45,3.62,7.45,12.81t-7.45,12.81a17.36,17.36,0,0,1-8,1.95H320.19l5.67,5.51,15.76,15.3h8.62l-15.92-15.38a21.87,21.87,0,0,0,9.71-4c5.2-3.65,7.76-9.08,7.76-16.23Zm87.74,29.82V434.56H456a17.38,17.38,0,0,1,8,1.94q7.45,3.62,7.45,12.82T464,462.13a19.64,19.64,0,0,1-8,1.94Zm17.86-44.65a8.7,8.7,0,0,1,3.49.7,4.1,4.1,0,0,1,2.8,4,5.24,5.24,0,0,1-.94,2.51c-1,1.33-2.79,2-5.35,2H439.53v-9.24Zm9.47,12c1.86-1.24,2.8-3.65,2.8-7.26a9.42,9.42,0,0,0-4.66-8.58,14.21,14.21,0,0,0-7.61-2.1H433.7v56.38H456a24.32,24.32,0,0,0,10.72-2.64c7.14-3.42,10.71-9.4,10.71-17.86,0-9.17-3.49-15.15-10.56-17.94Zm-286.93,2.87q0-12.69-10.71-17.94a23.84,23.84,0,0,0-10.72-2.64H140.25v56.15h5.9V419.5H158.5a17.38,17.38,0,0,1,8,1.94q7.45,3.62,7.45,12.81t-7.45,12.81a17.39,17.39,0,0,1-8,1.95H148.33l5.67,5.51,15.76,15.3h8.62l-15.92-15.38a22,22,0,0,0,9.71-4c5.2-3.65,7.76-9.08,7.76-16.23Zm52.53,23.61c-4.27,4-10.41,6-18.49,6H197.9V419.65H214a23.32,23.32,0,0,1,6.68.55,22.86,22.86,0,0,1,11.81,5.35c4,3.81,6,9.17,6,16.16s-2,12.42-6,16.15Zm4-36.66a28.42,28.42,0,0,0-13.9-6.91,54.37,54.37,0,0,0-8.85-.62H192v56.15h21.74a33.11,33.11,0,0,0,8.47-.7,29,29,0,0,0,14.28-6.84c5.28-4.89,7.93-11.8,7.93-20.57s-2.65-15.61-7.93-20.51Zm156.26,43.41a23.06,23.06,0,1,1,0-46.12,23.06,23.06,0,0,1,0,46.12Zm0-52a28.88,28.88,0,0,0-28.89,28.92,28.9,28.9,0,0,0,28.89,29,29,29,0,0,0,0-57.93Z" transform="translate(0)"/><path id="path17" class="cls-5" d="M185.37,139.62c-8,2.13-7.17.69-16.85,4.84-39.75,17.06-53.18,68.27-20.28,96.94,11,9.61,21.6,12.06,33.73,18,1.32.65,1.1.22,1.46,1.53,2.13,7.91-2.13,116.22.68,119.18,2.83,2,15.87,0,19.84-.54,15.93-2.09,32.27-10.74,41.83-22.81s6.39-9.93,11.65-20.31c1.54-3,3.27-2.88,7.15-3.88,20.8-5.4,38.82-19.91,45.85-40.12,4.25-12.21,4.62-25,1.8-38.12-3.36-15.67-15.84-29.21-28.53-35.8l-14.54-7.15L269,93.23c-3.46-.89-26.46.31-31,.94a60,60,0,0,0-23.94,8.77c-13.84,8.67-22,18.51-28.74,36.68Zm11.76,175.54,0,51.56c9.83,2.15,22.77-6.29,30.11-12.12a46.2,46.2,0,0,0,8.66-9.6c1.49-2.43,3.19-5.08,4.66-7.52,1.86-3.08,4-16.38,3.84-20.81-.59-15.71-7.15-26.61-15.11-33.49-5.25-4.55-8-6.22-14.46-9.88-3.31-1.88-13.15-7.31-17.72-6.73Zm58.58-110.88c.64-12,0-26,0-38.23,0-12.93-.06-25.88.06-38.8.19-20.44,3.53-24.08-16-19.91a55.29,55.29,0,0,0-25.76,13,46.66,46.66,0,0,0-13.64,24.73,45.91,45.91,0,0,0,5.86,31.47c4.64,7.74,12,12.84,21.15,17.63,4.89,2.55,22.26,11.41,28.32,10.09Zm4.64,114.06c5.66,1,10.86-2.1,14.35-4.56,12.09-8.54,21.29-19.46,23.1-36.25,2.82-26.29-12.2-41.29-28.75-49.68-24.84-12.58-61.58-20.33-76.26-42-6.95-10.25-7.58-16.5-8.9-30.68-9.75-2-22,9.06-25.43,13.13-5.77,6.9-11.15,14.74-12.29,27.19-2.37,25.86,14.84,38.84,32.09,46.72,34.57,15.8,78.07,22.28,81.77,66.6.26,3.11,0,6.7.32,9.57Z" transform="translate(0)"/><path id="path46" class="cls-6" d="M195.36,0H433V115.68H195.36Z" transform="translate(0)"/><path id="path50" class="cls-6" d="M195.36,0H433V115.68H195.36Z" transform="translate(0)"/><path id="path54" class="cls-6" d="M129.6,92.88H314.16V381.12H129.6Z" transform="translate(0)"/><path id="path58" class="cls-6" d="M129.6,92.88H314.16V381.12H129.6Z" transform="translate(0)"/><path id="path62" class="cls-6" d="M129.6,92.88H314.16V381.12H129.6Z" transform="translate(0)"/><path id="path66" class="cls-6" d="M0,412.32H477.6v58.56H0Z" transform="translate(0)"/><path id="path70" class="cls-6" d="M0,412.32H477.6v58.56H0Z" transform="translate(0)"/><path id="path74" class="cls-6" d="M0,412.32H477.6v58.56H0Z" transform="translate(0)"/><path id="path78" class="cls-6" d="M195.36,0H433V115.68H195.36Z" transform="translate(0)"/><path id="path82" class="cls-6" d="M195.36,0H433V115.68H195.36Z" transform="translate(0)"/></svg>