<?xml version="1.0"?>
<svg xmlns="http://www.w3.org/2000/svg" xmlns:xlink="http://www.w3.org/1999/xlink" xmlns:svgjs="http://svgjs.com/svgjs" version="1.1" width="512" height="512" x="0" y="0" viewBox="0 0 512 512" style="enable-background:new 0 0 512 512" xml:space="preserve"><g><g xmlns="http://www.w3.org/2000/svg"><g><path d="m437.02 74.98c-48.353-48.351-112.64-74.98-181.02-74.98s-132.667 26.629-181.02 74.98c-48.351 48.353-74.98 112.64-74.98 181.02s26.629 132.667 74.98 181.02c48.353 48.351 112.64 74.98 181.02 74.98 141.491 0 256-114.497 256-256 0-68.38-26.629-132.667-74.98-181.02zm-181.02 407.02c-124.617 0-226-101.383-226-226s101.383-226 226-226 226 101.383 226 226-101.383 226-226 226z" fill="#eacd67" data-original="#000000" style=""/></g><g><path d="m256 60c-108.075 0-196 87.925-196 196s87.925 196 196 196 196-87.925 196-196-87.925-196-196-196zm0 362c-91.533 0-166-74.467-166-166s74.467-166 166-166 166 74.467 166 166-74.467 166-166 166z" fill="#eacd67" data-original="#000000" style=""/></g><g><path d="m256 171.5c8.284 0 15-6.716 15-15v-21.625c0-8.284-6.716-15-15-15s-15 6.716-15 15v21.625c0 8.284 6.716 15 15 15z" fill="#eacd67" data-original="#000000" style=""/></g><g><path d="m156.5 241h-21.625c-8.284 0-15 6.716-15 15s6.716 15 15 15h21.625c8.284 0 15-6.716 15-15s-6.716-15-15-15z" fill="#eacd67" data-original="#000000" style=""/></g><g><path d="m256 340.5c-8.284 0-15 6.716-15 15v21.625c0 8.284 6.716 15 15 15s15-6.716 15-15v-21.625c0-8.284-6.716-15-15-15z" fill="#eacd67" data-original="#000000" style=""/></g><g><path d="m377.125 241h-21.625c-8.284 0-15 6.716-15 15s6.716 15 15 15h21.625c8.284 0 15-6.716 15-15s-6.716-15-15-15z" fill="#eacd67" data-original="#000000" style=""/></g><g><path d="m266.046 267.14 85.5-77.092c6.152-5.547 6.643-15.032 1.096-21.185-5.548-6.152-15.033-6.644-21.186-1.095l-75.283 67.879-34.607-32.283c-6.056-5.65-15.549-5.321-21.2.737-5.65 6.058-5.321 15.55.737 21.201l44.667 41.667c5.69 5.307 14.494 5.384 20.276.171z" fill="#eacd67" data-original="#000000" style=""/></g></g></g></svg>
