<?xml version="1.0"?>
<svg xmlns="http://www.w3.org/2000/svg" xmlns:xlink="http://www.w3.org/1999/xlink" xmlns:svgjs="http://svgjs.com/svgjs" version="1.1" width="512" height="512" x="0" y="0" viewBox="0 0 512 512" style="enable-background:new 0 0 512 512" xml:space="preserve"><g><g xmlns="http://www.w3.org/2000/svg"><path d="m442.195 137.034 5.531-27.806-59.36-11.807-132.366-97.41-76.036 55.956-66.821-13.292-14.556 73.178-98.587 72.551v323.585h512v-323.585zm26.203 56.531-41.603 20.888 8.937-44.927zm-212.398-156.306 63.002 46.364-99.193-19.731zm156.45 95.54-19.636 98.715-136.814 68.69-148.649-74.633 29.363-147.62zm-332.909 78.81-35.939-18.044 46.306-34.077zm-49.541 270.38v-261.684l226 113.469 226-113.469v261.684z" fill="#eacd67" data-original="#000000" style=""/><path d="m334.449 140.864h30v50.568h-30z" transform="matrix(.195 -.981 .981 .195 118.317 476.467)" fill="#eacd67" data-original="#000000" style=""/><path d="m211.293 71.367h30v140.568h-30z" transform="matrix(.195 -.981 .981 .195 43.216 335.962)" fill="#eacd67" data-original="#000000" style=""/><path d="m214.299 118.14h30v170.568h-30z" transform="matrix(.195 -.981 .981 .195 -14.951 388.631)" fill="#eacd67" data-original="#000000" style=""/></g></g></svg>
